<svg width="232" height="54" viewBox="0 0 232 54" fill="none" xmlns="http://www.w3.org/2000/svg">
<g clip-path="url(#clip0_49_24)">
<path fill-rule="evenodd" clip-rule="evenodd" d="M44.9103 2.14V0H39.5703C39.6703 0.02 39.7703 0.04 39.8703 0.07C41.6003 0.53 43.2903 1.22 44.9203 2.14H44.9103Z" fill="#2880B2"/>
<path fill-rule="evenodd" clip-rule="evenodd" d="M42.8801 4.91C41.2401 2.51 39.2201 0.79 36.9801 0H31.4901C29.0301 0.86 26.8401 2.86 25.1201 5.63C22.7801 9.42 21.3301 14.66 21.3301 20.44C21.3301 23.11 21.6401 25.66 22.2001 28C22.7701 30.39 23.5701 33.11 24.6101 34.98L39.1201 20.6C40.5201 19.24 42.3301 18.4 44.2401 18.15C44.4601 18.12 44.6901 18.1 44.9101 18.09V8.67C44.3301 7.29 43.6501 6.02 42.8801 4.9V4.91Z" fill="#2880B2"/>
<path fill-rule="evenodd" clip-rule="evenodd" d="M34.4798 43.23H34.3998C32.5498 43.23 30.6898 43.02 28.8598 42.57C27.0898 42.14 25.3498 41.5 23.6898 40.63L23.4898 40.52L23.2198 40.38L13.7598 49.14C23.9698 43.23 30.8098 44.31 37.9198 45.6C40.1798 46.01 42.4698 46.43 44.9098 46.62V40.74C43.3398 41.54 41.6698 42.15 39.9398 42.57C38.1598 43 36.3298 43.22 34.4798 43.23Z" fill="#2880B2"/>
<path fill-rule="evenodd" clip-rule="evenodd" d="M12.66 49.91L12.61 49.81L12.94 49.52L22.86 39.61L22.94 39.53L25.45 37.06L25.52 36.99L25.58 37.08C26.75 38.85 28.11 40.26 29.61 41.23C31.05 42.16 32.61 42.66 34.24 42.66H34.33C38.04 42.64 41.69 41.76 44.92 39.94V19.47C44.65 19.24 44.52 19.13 44.25 18.9C42.38 19.15 40.61 20 39.24 21.37L23.45 36.95C22.39 38 20.59 38.04 19.48 37.06C15.79 33.66 13.47 29.13 12.74 24.33C12.03 19.63 12.85 14.65 15.41 10.21C17.39 6.78 20.15 4.1 23.34 2.26C25 1.3 26.77 0.57 28.61 0.08C28.72 0.05 28.83 0.03 28.93 0H0.11C0.05 0 0 0.05 0 0.11V53.47H36.58C34.67 52.92 32.82 52.09 30.95 51.25C25.69 48.88 20.24 46.43 12.65 49.91H12.66Z" fill="#2880B2"/>
<path d="M66.0998 33.46C65.6398 33.51 65.1498 33.53 64.6298 33.53C61.4498 33.53 58.8598 32.58 56.8498 30.69C54.8398 28.8 53.8398 26.28 53.8398 23.14C53.8398 20 54.8598 17.65 56.8998 15.8C58.9398 13.95 61.4898 13.02 64.5498 13.02C66.4398 13.02 68.2598 13.43 70.0198 14.25C71.7798 15.07 73.1098 16.29 74.0198 17.9C74.9198 19.51 75.3798 21.29 75.3798 23.25C75.3798 25.53 74.7898 27.54 73.6098 29.29C72.4298 31.04 70.7198 32.27 68.4798 32.97L64.1198 35.38C64.4198 35.35 64.6798 35.34 64.9098 35.34C67.0698 35.34 69.5498 35.83 72.3598 36.8C74.5198 37.55 76.2298 37.92 77.4898 37.92C79.2398 37.92 80.2798 37.26 80.6098 35.94H81.2198C81.0498 37.28 80.4998 38.37 79.5398 39.21C78.5798 40.05 77.3598 40.46 75.8498 40.46C74.8598 40.46 73.9598 40.3 73.1398 39.98C72.3298 39.66 71.2698 39.08 69.9698 38.26C67.6398 36.77 65.6898 36.03 64.1398 36.03C63.2098 36.03 62.2998 36.4 61.4298 37.14C60.8498 37.63 60.4398 37.87 60.2198 37.87C59.8698 37.87 59.6998 37.71 59.6998 37.39C59.6998 37.15 59.9098 36.9 60.3298 36.64C60.7498 36.38 61.5398 35.97 62.6898 35.41C62.9298 35.29 63.1798 35.17 63.4198 35.03L66.1198 33.48L66.0998 33.46ZM57.1698 23.25C57.1698 26.43 57.7998 28.82 59.0698 30.41C60.3398 32 62.2398 32.8 64.7798 32.8C67.0098 32.8 68.7698 32 70.0598 30.41C71.3498 28.81 71.9998 26.44 71.9998 23.28C71.9998 20.12 71.3598 17.85 70.0898 16.21C68.8198 14.57 66.9698 13.75 64.5498 13.75C62.1298 13.75 60.3398 14.55 59.0698 16.15C57.7998 17.75 57.1698 20.12 57.1698 23.25Z" fill="white"/>
<path d="M94.75 22.52C97 22.69 98.66 23.24 99.75 24.2C100.84 25.16 101.38 26.34 101.38 27.77C101.38 29.02 101.01 30.09 100.27 30.99C99.53 31.89 98.58 32.48 97.43 32.76C96.28 33.04 94.73 33.18 92.8 33.18H85.04V32.51H85.8C86.65 32.51 87.23 32.4 87.56 32.19C87.89 31.98 88.09 31.64 88.18 31.19C88.27 30.74 88.31 29.69 88.31 28.03V18.4C88.31 16.8 88.26 15.76 88.17 15.29C88.08 14.82 87.88 14.5 87.59 14.33C87.29 14.16 86.64 14.07 85.64 14.07H85.26V13.4L88.51 13.31L92.22 13.19C97.63 13.19 100.33 14.75 100.33 17.86C100.33 19.14 99.87 20.17 98.94 20.95C98.01 21.73 96.61 22.25 94.75 22.53V22.52ZM91.17 22.24C91.41 22.25 91.62 22.25 91.78 22.25C93.88 22.25 95.32 21.92 96.08 21.26C96.85 20.6 97.23 19.53 97.23 18.05C97.23 17.02 97.08 16.22 96.78 15.66C96.48 15.1 96.03 14.66 95.42 14.35C94.81 14.04 93.79 13.89 92.33 13.89C91.95 13.89 91.56 13.9 91.16 13.93V22.23L91.17 22.24ZM91.17 22.96V27.37C91.17 29.25 91.2 30.44 91.27 30.94C91.34 31.45 91.52 31.83 91.82 32.09C92.12 32.35 92.7 32.48 93.58 32.48C95.14 32.48 96.3 32.08 97.08 31.28C97.86 30.48 98.25 29.29 98.25 27.69C98.25 26.09 97.81 24.85 96.93 24.08C96.05 23.31 94.5 22.92 92.28 22.92C91.93 22.92 91.56 22.92 91.17 22.95V22.96Z" fill="white"/>
<path d="M115.869 30.98H116.409C116.319 32.64 115.509 33.47 113.959 33.47C113.299 33.47 112.779 33.3 112.389 32.95C111.999 32.6 111.759 32.08 111.639 31.39C110.669 32.08 109.779 32.6 108.979 32.95C108.179 33.3 107.459 33.47 106.829 33.47C106.019 33.47 105.329 33.24 104.739 32.77C104.149 32.3 103.859 31.69 103.859 30.92C103.859 29.92 104.349 29.04 105.329 28.29C106.309 27.54 107.659 26.81 109.379 26.1L111.639 25.18V24.6C111.639 23.77 111.589 23.18 111.479 22.81C111.369 22.44 111.099 22.11 110.649 21.82C110.199 21.53 109.609 21.38 108.879 21.38C107.419 21.38 106.609 21.87 106.439 22.84C106.279 23.83 105.879 24.33 105.209 24.33C104.619 24.33 104.319 24.05 104.319 23.48C104.319 22.91 104.709 22.33 105.499 21.69C106.289 21.05 107.509 20.73 109.179 20.73C110.409 20.73 111.369 20.92 112.049 21.31C112.729 21.7 113.179 22.14 113.399 22.64C113.619 23.14 113.729 23.89 113.729 24.92V29.75C113.729 30.88 113.789 31.6 113.899 31.92C114.019 32.24 114.269 32.4 114.659 32.4C115.299 32.4 115.699 31.92 115.859 30.97L115.869 30.98ZM111.639 25.87L110.049 26.51C107.539 27.53 106.289 28.81 106.289 30.36C106.289 30.97 106.449 31.47 106.769 31.84C107.089 32.21 107.509 32.4 108.019 32.4C108.479 32.4 109.009 32.25 109.609 31.95C110.209 31.65 110.889 31.2 111.639 30.59V25.86V25.87Z" fill="white"/>
<path d="M120.83 20.74H121.22C121.44 21.34 121.57 22.16 121.6 23.21C122.3 22.38 123.03 21.77 123.8 21.36C124.57 20.95 125.37 20.75 126.21 20.75C127.16 20.75 127.94 20.95 128.55 21.35C129.16 21.75 129.55 22.24 129.72 22.82C129.89 23.4 129.98 24.24 129.98 25.35V29.08C129.98 30.46 130 31.3 130.05 31.6C130.1 31.9 130.25 32.13 130.51 32.28C130.77 32.43 131.24 32.51 131.93 32.51V33.18H125.82V32.51H126.1C126.8 32.51 127.26 32.41 127.47 32.2C127.68 32 127.81 31.76 127.83 31.49C127.86 31.22 127.87 30.42 127.87 29.08V25.23C127.87 24.29 127.82 23.61 127.73 23.21C127.64 22.81 127.39 22.45 126.99 22.14C126.59 21.83 126.07 21.67 125.45 21.67C124.74 21.67 124.06 21.88 123.42 22.3C122.77 22.72 122.16 23.36 121.59 24.2V29.07C121.59 30.45 121.62 31.29 121.67 31.59C121.72 31.89 121.88 32.12 122.14 32.27C122.4 32.42 122.88 32.5 123.58 32.5V33.17H117.54V32.5C118.21 32.5 118.68 32.43 118.94 32.3C119.2 32.16 119.37 31.96 119.43 31.68C119.49 31.4 119.52 30.53 119.52 29.08V25.52C119.52 24.13 119.49 23.29 119.44 22.99C119.39 22.69 119.23 22.47 118.97 22.32C118.71 22.17 118.23 22.09 117.53 22.09V21.42C118.6 21.3 119.69 21.08 120.81 20.75L120.83 20.74Z" fill="white"/>
<path d="M140.48 21.22H145.29V21.89C144.41 21.91 143.22 22.57 141.73 23.87C141.25 24.28 140.51 24.88 139.51 25.66L143.77 30.65C144.41 31.4 144.92 31.89 145.29 32.12C145.66 32.35 146.04 32.47 146.43 32.49V33.16H140.48V32.49C141.47 32.47 141.97 32.26 141.97 31.85C141.97 31.67 141.64 31.19 140.99 30.43L137.93 26.87L137.3 27.34V29.06C137.3 30.33 137.32 31.13 137.35 31.46C137.38 31.79 137.52 32.04 137.77 32.22C138.01 32.4 138.44 32.49 139.04 32.49V33.16H132.99V32.49H133.44C134.14 32.49 134.59 32.39 134.8 32.19C135.01 31.99 135.13 31.75 135.16 31.48C135.19 31.2 135.2 30.4 135.2 29.07V17.09C135.2 15.93 135.09 15.19 134.87 14.87C134.65 14.55 134.12 14.39 133.29 14.39V13.72C133.86 13.72 134.55 13.65 135.35 13.52C136.15 13.39 136.7 13.25 136.99 13.11H137.3V26.55L138.55 25.67C140.58 24.23 141.6 23.2 141.6 22.56C141.6 22.13 141.23 21.91 140.48 21.89V21.22Z" fill="white"/>
<path d="M167.61 29.75L174.82 13.38H180.89V14.05H180.16C179.19 14.05 178.55 14.13 178.25 14.29C177.95 14.45 177.75 14.75 177.65 15.19C177.55 15.63 177.5 16.67 177.5 18.31V28.01C177.5 29.57 177.54 30.58 177.62 31.07C177.7 31.55 177.89 31.91 178.21 32.14C178.53 32.37 179.13 32.49 180.03 32.49H180.91V33.16H171.46V32.49H172.16C173 32.49 173.58 32.38 173.9 32.17C174.23 31.96 174.43 31.62 174.53 31.17C174.62 30.72 174.67 29.67 174.67 28.01V15.42L166.84 33.16H166.15L158.26 15.42V27C158.26 28.58 158.31 29.66 158.41 30.24C158.51 30.82 158.81 31.32 159.31 31.75C159.82 32.18 160.53 32.43 161.44 32.49V33.16H154.37V32.49C155.22 32.44 155.9 32.21 156.43 31.8C156.96 31.39 157.28 30.88 157.4 30.28C157.52 29.68 157.58 28.56 157.58 26.92V18.31C157.58 16.73 157.53 15.72 157.44 15.26C157.35 14.8 157.15 14.49 156.86 14.31C156.56 14.14 155.91 14.05 154.91 14.05H154.37V13.38H160.39L167.64 29.75H167.61Z" fill="white"/>
<path d="M182.56 27.17C182.56 25.34 183.17 23.81 184.4 22.58C185.63 21.35 187.13 20.73 188.92 20.73C190.71 20.73 192.23 21.35 193.46 22.58C194.69 23.82 195.3 25.34 195.3 27.16C195.3 29.17 194.68 30.76 193.43 31.91C192.18 33.06 190.68 33.64 188.92 33.64C187.16 33.64 185.66 33.05 184.42 31.88C183.18 30.71 182.56 29.14 182.56 27.16V27.17ZM184.99 27.25C184.99 29.37 185.34 30.86 186.03 31.71C186.72 32.56 187.69 32.99 188.93 32.99C190.17 32.99 191.18 32.56 191.85 31.71C192.52 30.86 192.86 29.37 192.86 27.25C192.86 25.13 192.52 23.65 191.85 22.76C191.18 21.87 190.2 21.42 188.92 21.42C187.64 21.42 186.67 21.86 186 22.75C185.32 23.64 184.99 25.14 184.99 27.25Z" fill="white"/>
<path d="M207.609 22.49V17.82C207.609 16.55 207.589 15.74 207.559 15.41C207.529 15.08 207.389 14.83 207.139 14.65C206.899 14.48 206.459 14.39 205.839 14.39H205.529V13.72C206.709 13.69 207.999 13.49 209.399 13.11H209.71V29.17C209.71 30.56 209.729 31.41 209.779 31.71C209.829 32.01 209.98 32.24 210.24 32.38C210.5 32.53 210.979 32.6 211.679 32.6V33.27C210.269 33.3 209.019 33.43 207.919 33.65C207.799 33.19 207.749 32.47 207.749 31.49C207.029 32.21 206.289 32.75 205.529 33.11C204.769 33.47 203.98 33.65 203.16 33.65C201.61 33.65 200.28 33.03 199.16 31.78C198.04 30.54 197.479 29.03 197.479 27.26C197.479 25.31 198.049 23.74 199.199 22.54C200.349 21.34 201.709 20.74 203.299 20.74C204.109 20.74 204.869 20.89 205.589 21.18C206.309 21.47 206.99 21.91 207.63 22.49H207.609ZM207.609 23.34C206.969 22.79 206.319 22.37 205.679 22.09C205.029 21.81 204.379 21.67 203.729 21.67C202.629 21.67 201.709 22.09 200.979 22.94C200.249 23.79 199.88 25.17 199.88 27.08C199.88 28.99 200.259 30.46 201.009 31.38C201.759 32.3 202.689 32.77 203.799 32.77C204.539 32.77 205.219 32.6 205.859 32.25C206.489 31.9 207.079 31.37 207.609 30.67V23.33V23.34Z" fill="white"/>
<path d="M223.89 25.26H215.56C215.52 25.83 215.5 26.26 215.5 26.54C215.5 28.64 215.83 30.22 216.48 31.27C217.14 32.33 218.12 32.85 219.42 32.85C221.19 32.85 222.44 32.06 223.18 30.47H223.88C223.57 31.46 222.95 32.24 222.03 32.8C221.11 33.36 220.1 33.64 219.01 33.64C218 33.64 217.04 33.38 216.14 32.87C215.24 32.36 214.5 31.64 213.93 30.7C213.36 29.76 213.07 28.63 213.07 27.3C213.07 25.41 213.62 23.85 214.73 22.6C215.84 21.35 217.22 20.73 218.89 20.73C220.46 20.73 221.67 21.21 222.52 22.16C223.38 23.11 223.83 24.14 223.88 25.25L223.89 25.26ZM221.34 24.68C221.37 24.46 221.38 24.26 221.38 24.08C221.38 23.22 221.13 22.56 220.63 22.09C220.13 21.62 219.51 21.38 218.78 21.38C217.01 21.38 215.95 22.48 215.61 24.68H221.33H221.34Z" fill="white"/>
<path d="M229.61 13.11V29.07C229.61 30.34 229.63 31.15 229.66 31.48C229.69 31.81 229.83 32.06 230.08 32.24C230.32 32.41 230.76 32.5 231.38 32.5H231.73V33.17H225.34V32.5H225.75C226.33 32.5 226.75 32.42 227 32.26C227.25 32.1 227.4 31.87 227.44 31.58C227.49 31.29 227.51 30.45 227.51 29.07V17.25C227.51 16 227.4 15.21 227.17 14.88C226.95 14.55 226.4 14.39 225.54 14.39V13.72C226.13 13.72 226.83 13.65 227.63 13.52C228.43 13.39 228.98 13.25 229.29 13.11H229.61Z" fill="white"/>
</g>
<defs>
<clipPath id="clip0_49_24">
<rect width="231.72" height="53.47" fill="white"/>
</clipPath>
</defs>
</svg>
