<svg width="55" height="53" viewBox="0 0 55 53" fill="none" xmlns="http://www.w3.org/2000/svg">
<path d="M54.9334 29.6599C54.527 26.8441 52.315 24.6321 49.4993 24.2257V22.5592C49.4993 17.9613 46.0041 14.2177 41.7077 14.2177C37.5351 14.2177 34.0418 17.8477 33.9162 22.3099H33.9693L33.9162 22.3191V40.3836C33.9162 46.1585 29.5987 50.8481 24.2913 50.8481C18.9839 50.8481 14.6665 46.1521 14.6665 40.3836V38.8188C15.9956 38.8188 17.4164 37.8554 17.4164 35.1522V32.8468C23.2995 31.3426 27.4996 26.2909 27.4996 20.5637V18.6525H25.6663L25.6278 6.72223C25.6145 4.5139 24.0298 2.62834 21.8567 2.23521C21.3879 0.799161 19.8437 0.0149645 18.4075 0.483833C16.9715 0.952586 16.1873 2.4968 16.6562 3.93297C17.1249 5.36902 18.6691 6.15322 20.1053 5.68435C20.8743 5.4333 21.4927 4.85478 21.7943 4.10427C22.9687 4.43839 23.7822 5.50675 23.7917 6.72773L23.833 18.6525H21.9997V20.5903C21.9266 23.7787 19.7889 26.5496 16.7234 27.4294C15.0832 27.9499 13.3221 27.9499 11.6818 27.4294C8.61986 26.5466 6.48704 23.7762 6.41657 20.5903V18.6525H3.66661V6.73598C3.67188 5.49701 4.50512 4.41444 5.70158 4.09235C6.25948 5.51259 7.86305 6.21154 9.28329 5.65364C10.7035 5.09574 11.4025 3.49206 10.8446 2.07193C10.2867 0.651809 8.683 -0.0472533 7.26287 0.510645C6.49334 0.813026 5.89958 1.44403 5.64475 2.23063C3.44788 2.606 1.83938 4.50725 1.83331 6.73598V18.6525H0V20.5591C0 26.2928 4.20286 31.3463 10.0832 32.8468V35.1522C10.0832 37.8554 11.504 38.8188 12.8331 38.8188V40.3836C12.8331 47.1668 17.9728 52.6814 24.2913 52.6814C30.6098 52.6814 35.7495 47.1604 35.7495 40.3836V22.3631C35.8411 18.8844 38.5159 16.0538 41.7077 16.0538C44.993 16.0538 47.666 18.9724 47.666 22.562V24.2257C44.1585 24.7319 41.7256 27.9857 42.2318 31.4932C42.738 35.0006 45.9918 37.4336 49.4993 36.9273C53.0067 36.4211 55.4397 33.1672 54.9334 29.6599ZM19.2497 3.98602C18.7435 3.98602 18.3331 3.57559 18.3331 3.06937C18.3331 2.56315 18.7435 2.15271 19.2497 2.15271C19.7559 2.15271 20.1664 2.56315 20.1664 3.06937C20.1664 3.57559 19.7559 3.98602 19.2497 3.98602ZM8.24988 2.15271C8.7561 2.15271 9.16653 2.56315 9.16653 3.06937C9.16653 3.57559 8.7561 3.98602 8.24988 3.98602C7.74366 3.98602 7.33323 3.57559 7.33323 3.06937C7.33323 2.56315 7.74366 2.15271 8.24988 2.15271ZM1.83331 20.5591V20.4858H4.58327V20.5903C4.65202 24.5744 7.30263 28.0514 11.1263 29.1729C13.13 29.8073 15.2807 29.8073 17.2844 29.1729C21.11 28.0529 23.763 24.5758 23.833 20.5903V20.4858H25.6663V20.5591C25.6663 25.6585 21.7357 30.1455 16.3164 31.2308C15.0439 31.4856 13.7404 31.5496 12.4491 31.4205C12.024 31.3793 11.6014 31.3154 11.1832 31.229C5.76392 30.1455 1.83331 25.6585 1.83331 20.5591ZM12.8331 36.9855C12.0082 36.9855 11.9165 35.7022 11.9165 35.1522V33.2071C11.9898 33.2163 12.065 33.2199 12.1392 33.2273C12.2309 33.2373 12.3226 33.2447 12.4142 33.2529C12.8478 33.2914 13.2851 33.3171 13.726 33.318H13.7718C14.2118 33.318 14.6481 33.2914 15.0789 33.2529C15.1706 33.2447 15.2678 33.2373 15.3622 33.2273C15.4346 33.219 15.5098 33.2163 15.5822 33.2071V35.1522C15.5822 35.7022 15.4905 36.9855 14.6655 36.9855H12.8331ZM48.5826 35.1522C46.0514 35.1522 43.9994 33.1002 43.9994 30.569C43.9994 28.0377 46.0514 25.9857 48.5826 25.9857C51.1138 25.9857 53.1659 28.0377 53.1659 30.569C53.1629 33.099 51.1126 35.1493 48.5826 35.1522Z" fill="#243656"/>
</svg>
